<?xml version="1.0" standalone="no"?>
<!DOCTYPE svg PUBLIC "-//W3C//DTD SVG 20010904//EN"
 "http://www.w3.org/TR/2001/REC-SVG-20010904/DTD/svg10.dtd">
<svg version="1.0" xmlns="http://www.w3.org/2000/svg"
 width="512.000000pt" height="512.000000pt" viewBox="0 0 512.000000 512.000000"
 preserveAspectRatio="xMidYMid meet">
<metadata>
Created by potrace 1.14, written by Peter Selinger 2001-2017
</metadata>
<g transform="translate(0.000000,512.000000) scale(0.100000,-0.100000)"
fill="#000000" stroke="none">
<path d="M0 2560 l0 -2560 142 0 143 0 1215 1212 1215 1213 -1210 -1212 -1210
-1213 2413 0 2412 0 0 2560 0 2560 -2560 0 -2560 0 0 -2560z m2888 -97 c-10
-2 -28 -2 -40 0 -13 2 -5 4 17 4 22 1 32 -1 23 -4z m902 -828 c426 -426 773
-775 770 -775 -3 0 -354 349 -780 775 -426 426 -773 775 -770 775 3 0 354
-349 780 -775z m817 -987 c-3 -8 -6 -5 -6 6 -1 11 2 17 5 13 3 -3 4 -12 1 -19z
m-37 -81 c0 -1 -127 -128 -282 -282 l-283 -280 280 283 c260 262 285 287 285
279z"/>
</g>
</svg>
